<svg xmlns="http://www.w3.org/2000/svg" width="30" height="30" fill="none" viewBox="0 0 30 30" class="css-16rpx2o e13l6sjy2">
    <path fill="#000" fill-rule="evenodd" d="M5.427 14.449c1.843-.715 4.41-1.164 7.263-1.164 2.852 0 5.42.449 7.263 1.164.923.358 1.648.776 2.137 1.225.489.448.716.9.716 1.337h.625c0-.681-.357-1.293-.923-1.812-.566-.52-1.368-.973-2.333-1.347-1.93-.749-4.577-1.206-7.485-1.206-2.908 0-5.555.457-7.486 1.206-.964.374-1.766.827-2.333 1.347-.566.52-.923 1.13-.923 1.812h.626c0-.436.226-.889.716-1.337.488-.449 1.214-.867 2.137-1.225z" clip-rule="evenodd"></path>
    <path fill="#000" fill-rule="evenodd" d="M22.754 17.063h.73v-.052c0-.7-.368-1.325-.94-1.85-.574-.526-1.382-.982-2.35-1.358-1.938-.752-4.592-1.209-7.504-1.209-2.913 0-5.566.458-7.505 1.21-.968.375-1.776.831-2.349 1.356-.573.526-.94 1.15-.94 1.85v.053h.73v-.052c0-.417.216-.856.699-1.299.482-.442 1.201-.858 2.12-1.214 1.836-.713 4.398-1.16 7.245-1.16 2.847 0 5.408.447 7.244 1.16.92.356 1.638.772 2.12 1.214.483.443.7.882.7 1.299v.052zm.677-.104c-.018-.66-.371-1.254-.923-1.76-.566-.52-1.368-.973-2.333-1.347-1.93-.749-4.578-1.206-7.485-1.206-2.908 0-5.555.457-7.486 1.206-.964.374-1.766.827-2.333 1.347-.552.506-.905 1.1-.922 1.76l-.001.052h.626c0-.436.226-.889.715-1.337.49-.449 1.215-.867 2.138-1.225 1.843-.715 4.41-1.164 7.263-1.164 2.852 0 5.42.449 7.263 1.164.923.358 1.648.776 2.137 1.225.489.448.716.9.716 1.337h.625v-.052z" clip-rule="evenodd"></path>
    <path fill="#000" fill-rule="evenodd" d="M5.427 17.594c1.843.715 4.41 1.164 7.263 1.164 2.852 0 5.42-.449 7.263-1.164.923-.358 1.648-.777 2.137-1.225.489-.448.716-.9.716-1.337h.625c0 .681-.357 1.293-.923 1.812-.566.52-1.368.973-2.333 1.347-1.93.749-4.577 1.206-7.485 1.206-2.908 0-5.555-.457-7.486-1.206-.964-.374-1.766-.827-2.333-1.347-.566-.52-.923-1.13-.923-1.812h.626c0 .436.226.889.716 1.337.488.448 1.214.867 2.137 1.225z" clip-rule="evenodd"></path>
    <path fill="#000" fill-rule="evenodd" d="M22.623 14.85h.99v.182c0 .75-.393 1.407-.982 1.947s-1.413 1.003-2.39 1.382c-1.957.76-4.627 1.218-7.551 1.218-2.925 0-5.595-.459-7.552-1.218-.976-.379-1.801-.842-2.39-1.382-.589-.54-.982-1.197-.982-1.947v-.182h.99v.182c0 .368.19.775.657 1.203.466.428 1.169.836 2.08 1.189 1.817.705 4.362 1.152 7.197 1.152s5.38-.447 7.197-1.152c.91-.353 1.613-.761 2.08-1.19.466-.427.656-.834.656-1.202v-.182zm.8.364c-.058.609-.4 1.158-.915 1.63-.566.52-1.368.973-2.333 1.347-1.93.749-4.577 1.206-7.485 1.206-2.908 0-5.555-.457-7.486-1.206-.964-.374-1.766-.827-2.333-1.347-.515-.472-.857-1.021-.914-1.63a1.94 1.94 0 01-.009-.182h.626c0 .436.226.889.716 1.337.488.449 1.214.867 2.137 1.225 1.843.715 4.41 1.164 7.263 1.164 2.852 0 5.42-.449 7.263-1.164.923-.358 1.648-.776 2.137-1.225.489-.448.716-.9.716-1.337h.625c0 .062-.002.122-.008.182z" clip-rule="evenodd"></path>
    <path fill="#000" d="M12.46.106a.156.156 0 01.297 0l6.288 18.563a.156.156 0 01-.02.14l-6.287 9.123a.156.156 0 01-.258 0l-6.288-9.124a.156.156 0 01-.02-.139L12.462.106zM3.878 9.91a.156.156 0 00-.295-.048L.016 17.036a.156.156 0 00.02.17l3.57 4.306c.083.1.245.061.273-.065l.97-4.293a.156.156 0 00.003-.055L3.878 9.91zM21.433 9.91a.156.156 0 01.295-.048l3.566 7.174a.156.156 0 01-.02.17l-3.57 4.306a.156.156 0 01-.273-.065l-.97-4.293a.157.157 0 01-.002-.055l.974-7.188z"></path>
</svg>