<svg width="25" height="25" xmlns="http://www.w3.org/2000/svg" xmlns:xlink="http://www.w3.org/1999/xlink">
    <defs>
        <path id="a" d="M0 0h8.197v16.393H0z"/>
    </defs>
    <g fill="none" fill-rule="evenodd">
        <path d="M9.5 2.758C7.89 5.123 2.526 6.79 1.644 6.53L1.64 6.52l.11-.213a12.716 12.716 0 0 1 3.824-4.362c.33-.237.672-.458 1.025-.664C7.348.856 8.118.83 8.371.82c2.388.044 1.141 1.919 1.128 1.938" fill="#5493F7"/>
        <g transform="translate(0 8.197)">
            <mask id="b" fill="#fff">
                <use xlink:href="#a"/>
            </mask>
            <path d="M8.149 12.284c.12.777-.003 3.848-.165 4.107-.138.008-.428.026-1.265-.438a13.33 13.33 0 0 1-4.151-3.656 13.087 13.087 0 0 1-1.89-3.604A12.92 12.92 0 0 1 0 4.543 12.909 12.909 0 0 1 .818 0H.82c.96 1.259 2.07 2.398 3.013 3.67.899 1.21 2.135 3.183 2.386 3.605 1.562 2.617 1.811 4.232 1.93 5.009" fill="#5493F7" mask="url(#b)"/>
        </g>
        <path d="M26.23 12.885c0 1.679-.32 3.284-.899 4.756-1.52 1.64-11.772-2.396-11.873-2.44-1.402-.616-5.67-2.492-6.055-5.438-.554-4.238 8.018-7.192 11.785-7.304.451.005 1.826.021 2.627.675a12.937 12.937 0 0 1 4.415 9.75M17.265 23.368c.613-2.17 5.973-4.394 7.156-4.514.146-.015.208.088.144.206-1.234 2.244-3.061 4.092-5.272 5.29-1.118.542-2.348.147-2.028-.982z" fill="#5493F7"/>
    </g>
</svg>
